<svg width="138" height="20" viewBox="0 0 138 20" fill="none" xmlns="http://www.w3.org/2000/svg">
<path d="M0 15.4472V13.5936H4.65738V14.3519C4.65738 14.9323 4.76961 15.3443 4.99406 15.5877C5.23722 15.8124 5.64872 15.9247 6.22855 15.9247H12.9621C13.542 15.9247 13.9441 15.8124 14.1686 15.5877C14.4117 15.3443 14.5333 14.9323 14.5333 14.3519V13.4812C14.5333 12.9008 14.4211 12.5076 14.1966 12.3016C13.9722 12.0957 13.5607 11.9646 12.9621 11.9084L4.48905 11.122C3.0114 10.9909 1.9359 10.6165 1.26254 9.99858C0.607892 9.36196 0.280565 8.33215 0.280565 6.90913V4.21288C0.280565 2.75242 0.617244 1.68515 1.2906 1.01109C1.98266 0.337031 3.04881 0 4.48905 0H14.7577C16.198 0 17.2548 0.337031 17.9281 1.01109C18.6202 1.68515 18.9662 2.75242 18.9662 4.21288V5.72952H14.3088V5.30823C14.3088 4.72779 14.1873 4.32523 13.9441 4.10054C13.7196 3.85713 13.3175 3.73542 12.7377 3.73542H6.67746C6.09762 3.73542 5.68612 3.85713 5.44297 4.10054C5.21852 4.32523 5.10629 4.72779 5.10629 5.30823V5.67335C5.10629 6.25379 5.21852 6.647 5.44297 6.85296C5.66742 7.05892 6.07892 7.18999 6.67746 7.24616L15.1505 8.03257C16.6282 8.16363 17.6943 8.54747 18.349 9.18409C19.0223 9.80198 19.359 10.8224 19.359 12.2455V15.4472C19.359 16.9077 19.013 17.975 18.3209 18.649C17.6476 19.3231 16.5908 19.6601 15.1505 19.6601H4.20848C2.76824 19.6601 1.7021 19.3231 1.01004 18.649C0.336678 17.975 0 16.9077 0 15.4472Z" fill="white"/>
<path d="M21.6927 19.6601V0H35.3282C37.049 0 38.2929 0.383841 39.0597 1.15152C39.8266 1.90048 40.2101 3.14562 40.2101 4.88695V8.59428C40.2101 10.3356 39.8266 11.5901 39.0597 12.3578C38.2929 13.1067 37.049 13.4812 35.3282 13.4812H26.5185V19.6601H21.6927ZM26.5185 9.88623H33.4484C34.1966 9.88623 34.7016 9.7458 34.9635 9.46495C35.244 9.18409 35.3843 8.66918 35.3843 7.92022V5.72952C35.3843 4.98057 35.244 4.46566 34.9635 4.1848C34.7016 3.90394 34.1966 3.76351 33.4484 3.76351H26.5185V9.88623Z" fill="white"/>
<path d="M46.8353 15.6719H58.7874V19.6601H42.0096V0H58.5069V3.9882H46.8353V7.72362H57.3846V11.3748H46.8353V15.6719Z" fill="white"/>
<path d="M65.7634 19.6601C63.9117 19.6601 62.5369 19.2201 61.6391 18.3401C60.76 17.4601 60.3204 16.0839 60.3204 14.2115V5.44866C60.3204 3.57627 60.76 2.20006 61.6391 1.32004C62.5369 0.440012 63.9117 0 65.7634 0H74.0682C75.9199 0 77.2853 0.440012 78.1644 1.32004C79.0622 2.20006 79.5111 3.57627 79.5111 5.44866V7.75171H74.8537V6.34741C74.8537 5.48611 74.6854 4.88695 74.3487 4.54991C74.012 4.21288 73.4135 4.04437 72.5531 4.04437H67.4468C66.6051 4.04437 66.0066 4.21288 65.6512 4.54991C65.3145 4.88695 65.1462 5.48611 65.1462 6.34741V13.3127C65.1462 14.174 65.3145 14.7732 65.6512 15.1102C66.0066 15.4472 66.6051 15.6158 67.4468 15.6158H72.5531C73.4135 15.6158 74.012 15.4472 74.3487 15.1102C74.6854 14.7732 74.8537 14.174 74.8537 13.3127V11.7118H79.5111V14.2115C79.5111 16.0839 79.0622 17.4601 78.1644 18.3401C77.2853 19.2201 75.9199 19.6601 74.0682 19.6601H65.7634Z" fill="white"/>
<path d="M98.8563 0V4.26906H92.0666V19.6601H87.2409V4.26906H80.4512V0H98.8563Z" fill="white"/>
<path d="M119.607 19.6601H114.332L109.787 12.8072H105.073V19.6601H100.248V0H113.883C115.604 0 116.848 0.383841 117.615 1.15152C118.382 1.90048 118.765 3.14562 118.765 4.88695V7.58319C118.765 9.17473 118.438 10.3543 117.783 11.122C117.147 11.8897 116.118 12.3297 114.697 12.4421L119.607 19.6601ZM105.073 3.59499V9.32452H112.003C112.752 9.32452 113.257 9.18409 113.518 8.90323C113.799 8.62237 113.939 8.10746 113.939 7.3585V5.56101C113.939 4.81205 113.799 4.29714 113.518 4.01628C113.257 3.73542 112.752 3.59499 112.003 3.59499H105.073Z" fill="white"/>
<path d="M126.048 15.6719H138V19.6601H121.222V0H137.719V3.9882H126.048V7.72362H136.597V11.3748H126.048V15.6719Z" fill="white"/>
</svg>
